<svg id="lg" xmlns="http://www.w3.org/2000/svg" width="512" height="512" viewBox="0 0 512 512">
  <circle id="paper" fill="#ffffff" cx="256" cy="256" r="256"/>
  <path id="icon" fill="#d121d7" fill-rule="evenodd" d="M396.027,370.357v85.684l-79.6-37.381A203.414,203.414,0,0,1,256,427.752c-103.521,0-187.442-76.635-187.442-171.17S152.479,85.411,256,85.411s187.442,76.636,187.442,171.171C443.442,300.262,425.515,340.113,396.027,370.357Zm-37.646-38.788a9,9,0,0,1-3.456,3.277,32.1,32.1,0,0,1-15.172,2.692h-3.868a32.1,32.1,0,0,1-15.171-2.692,8.984,8.984,0,0,1-3.456-3.277,8.8,8.8,0,0,1-1.27-4.555V175.763a8.266,8.266,0,0,1,1.254-4.463,8.454,8.454,0,0,1,3.472-3.124,29.8,29.8,0,0,1,15.171-2.937h3.868a29.811,29.811,0,0,1,15.172,2.937A8.459,8.459,0,0,1,358.4,171.3a8.269,8.269,0,0,1,1.254,4.462V327.014A8.8,8.8,0,0,1,358.381,331.569ZM291.3,335.562A21.362,21.362,0,0,1,280.1,337.52H262.943a33.291,33.291,0,0,1-11.69-1.713,11.019,11.019,0,0,1-3.929-3.219,10.8,10.8,0,0,1-2.04-4.613l-5.3-20.558H189.3l-5.453,20.558a11.259,11.259,0,0,1-1.861,4.508,11.463,11.463,0,0,1-3.611,3.324,30.567,30.567,0,0,1-11.939,1.713H150.274a22.192,22.192,0,0,1-11.193-1.958,6.333,6.333,0,0,1-2.064-2.349,6.214,6.214,0,0,1-.671-3.035,14.811,14.811,0,0,1,.994-5.14q0.747-2.937,1.741-6.118L183.6,176.969a14.725,14.725,0,0,1,2.37-5.445,14.986,14.986,0,0,1,4.345-4.1,26.981,26.981,0,0,1,12.187-2.2h25.37a26.03,26.03,0,0,1,12.187,2.2,14.986,14.986,0,0,1,4.345,4.1,14.725,14.725,0,0,1,2.37,5.445L291.545,318.92a52.046,52.046,0,0,1,1.99,6.118,19.234,19.234,0,0,1,.746,5.14,6.042,6.042,0,0,1-.757,3.087A6.165,6.165,0,0,1,291.3,335.562ZM219.168,226.651l-1.989-7.831q-1-3.916-1.741-7.832h-0.995Q213.7,214.9,212.7,218.82l-1.99,7.831-11.565,43.565h31.232Z"/>
</svg>
