<svg xmlns="http://www.w3.org/2000/svg" width="512" height="512" viewBox="0 0 512 512">
  <path id="paper" fill="#931ea5" fill-rule="evenodd" d="M452.885,471.168c-42.2,37.662-110.573,40.894-168.365,40.894H227.185c-57.792,0-126.167-3.232-168.365-40.894C9.229,426.909-.1,349.838-0.1,281.274v-55.15c0-67.934,8.753-140.75,57.554-184.974C99.821,2.76,168.769-.228,227.185-0.228H284.52c58.416,0,127.364,2.988,169.727,41.378,48.8,44.224,57.887,117.04,57.887,184.974v55.15C512.134,349.838,502.476,426.909,452.885,471.168Z"/>
  <path id="icon" fill="#fff" fill-rule="evenodd" opacity="0.95" d="M366.268,349.784l-0.451,69.161-63.911-40.179a217.364,217.364,0,0,1-45.075,4.561c-85.052,0-154-44.949-154-130a154,154,0,1,1,308,0C410.831,295.573,393.814,327.92,366.268,349.784ZM330.111,164.138c-22.457-6.909-40.13,6.1-73.352,6.619-33.223-.522-50.9-13.528-73.353-6.619-17.277,5.315-43.211,28.725-48.689,70.426-9.771,74.381,25.915,49.857,82.457,38.562a205.58,205.58,0,0,1,79.169,0c56.542,11.3,92.229,35.819,82.457-38.562C373.322,192.863,347.388,169.453,330.111,164.138ZM320.083,223.26a53.267,53.267,0,0,0-17.837-2.093c-8.506,1.145-19.258,1.954-15.126-9.048,7.445-12.9,25.838-16.216,41.08-7.415,13.918,8.035,20.361,23.388,15.714,35.815C340,233.154,331.487,226.609,320.083,223.26Zm-107.7-2.093a53.267,53.267,0,0,0-17.837,2.093c-11.4,3.349-19.92,9.894-23.831,17.259-4.646-12.427,1.8-27.78,15.714-35.815,15.243-8.8,33.635-5.481,41.08,7.415C231.642,223.121,220.89,222.312,212.384,221.167Z"/>
</svg>
